<svg xmlns="http://www.w3.org/2000/svg" xmlns:xlink="http://www.w3.org/1999/xlink" width="1980" zoomAndPan="magnify" viewBox="0 0 1485 67.499998" height="90" preserveAspectRatio="xMidYMid meet" version="1.2"><defs><clipPath id="fc91953285"><path d="M 709 0.152344 L 776 0.152344 L 776 67 L 709 67 Z M 709 0.152344 "/></clipPath></defs><g id="5427a81ace"><path style=" stroke:none;fill-rule:nonzero;fill:#000000;fill-opacity:1;" d="M 695.1875 40.898438 L 695.1875 36.429688 L 425.816406 33.503906 L 695.1875 30.574219 L 695.1875 26.109375 L 14.773438 33.503906 Z M 695.1875 40.898438 "/><path style=" stroke:none;fill-rule:nonzero;fill:#000000;fill-opacity:1;" d="M 789.632812 26.109375 L 789.632812 30.574219 L 1059.035156 33.503906 L 789.632812 36.429688 L 789.632812 40.898438 L 1470.078125 33.503906 Z M 789.632812 26.109375 "/><g clip-rule="nonzero" clip-path="url(#fc91953285)"><path style=" stroke:none;fill-rule:nonzero;fill:#000000;fill-opacity:1;" d="M 774.644531 30.546875 C 773.953125 29.519531 773.050781 28.675781 772.03125 27.980469 C 771.398438 27.527344 770.707031 27.136719 770.015625 26.773438 C 769.324219 26.441406 768.605469 26.109375 767.855469 25.835938 C 767.972656 25.382812 768.035156 24.960938 768.035156 24.507812 C 768.035156 22.578125 766.894531 20.644531 764.578125 18.984375 C 761.964844 25.082031 754.15625 30.242188 743.550781 33.171875 L 765.8125 9.960938 L 742.710938 32.324219 C 745.625 21.703125 750.730469 13.855469 756.800781 11.230469 C 755.148438 8.90625 753.222656 7.757812 751.300781 7.757812 C 750.851562 7.757812 750.429688 7.820312 749.980469 7.9375 C 749.710938 7.183594 749.378906 6.460938 749.046875 5.765625 C 748.417969 4.5 747.667969 3.292969 746.675781 2.296875 C 745.925781 1.511719 745.023438 0.847656 744.003906 0.453125 C 742.980469 0.09375 741.808594 0.0625 740.789062 0.453125 C 740.308594 0.636719 739.855469 0.875 739.4375 1.148438 C 738.414062 1.84375 737.574219 2.746094 736.882812 3.773438 C 736.433594 4.40625 736.042969 5.101562 735.679688 5.796875 C 735.351562 6.492188 735.019531 7.214844 734.75 7.96875 C 734.300781 7.847656 733.878906 7.789062 733.429688 7.789062 C 731.503906 7.789062 729.582031 8.933594 727.929688 11.257812 C 734.027344 13.886719 739.164062 21.792969 742.078125 32.476562 L 718.859375 9.992188 L 741.089844 33.171875 C 730.574219 30.242188 722.792969 25.113281 720.179688 19.015625 C 717.867188 20.675781 716.726562 22.609375 716.726562 24.539062 C 716.726562 24.992188 716.785156 25.414062 716.90625 25.867188 C 716.15625 26.140625 715.433594 26.472656 714.742188 26.804688 C 713.480469 27.4375 712.28125 28.191406 711.289062 29.1875 C 710.507812 29.941406 709.847656 30.847656 709.457031 31.875 C 709.09375 32.898438 709.066406 34.078125 709.457031 35.101562 C 709.636719 35.585938 709.875 36.039062 710.148438 36.460938 C 710.835938 37.488281 711.738281 38.332031 712.761719 39.027344 C 713.390625 39.480469 714.082031 39.871094 714.773438 40.234375 C 715.464844 40.566406 716.183594 40.898438 716.9375 41.167969 C 716.816406 41.621094 716.753906 42.042969 716.753906 42.496094 C 716.753906 44.429688 717.898438 46.359375 720.210938 48.019531 C 722.824219 41.925781 730.632812 36.792969 741.207031 33.867188 L 718.886719 57.136719 L 742.078125 34.679688 C 739.164062 45.335938 734.058594 53.183594 727.960938 55.808594 C 729.613281 58.132812 731.535156 59.277344 733.457031 59.277344 C 733.910156 59.277344 734.328125 59.21875 734.78125 59.097656 C 735.050781 59.851562 735.378906 60.578125 735.710938 61.269531 C 736.070312 61.964844 736.460938 62.660156 736.914062 63.292969 C 737.601562 64.289062 738.445312 65.222656 739.464844 65.917969 C 739.886719 66.191406 740.335938 66.429688 740.816406 66.613281 C 741.839844 66.976562 743.011719 66.976562 744.03125 66.613281 C 745.054688 66.25 745.953125 65.554688 746.707031 64.773438 C 747.667969 63.746094 748.449219 62.539062 749.078125 61.300781 C 749.410156 60.605469 749.738281 59.882812 750.011719 59.128906 C 750.460938 59.25 750.882812 59.308594 751.332031 59.308594 C 753.253906 59.308594 755.175781 58.160156 756.828125 55.835938 C 750.761719 53.242188 745.683594 45.425781 742.742188 34.832031 L 765.8125 57.164062 L 743.429688 33.835938 C 754.066406 36.761719 761.9375 41.925781 764.550781 48.050781 C 766.863281 46.390625 768.003906 44.460938 768.003906 42.527344 C 768.003906 42.074219 767.945312 41.652344 767.824219 41.199219 C 768.574219 40.929688 769.296875 40.597656 769.988281 40.265625 C 771.25 39.628906 772.449219 38.875 773.441406 37.878906 C 774.222656 37.125 774.882812 36.21875 775.273438 35.195312 C 775.632812 34.167969 775.664062 32.988281 775.273438 31.964844 C 775.09375 31.480469 774.851562 31.027344 774.582031 30.605469 Z M 774.644531 30.546875 "/></g></g></svg>