<svg xmlns="http://www.w3.org/2000/svg" xmlns:xlink="http://www.w3.org/1999/xlink" width="265" zoomAndPan="magnify" viewBox="0 0 198.75 98.999996" height="132" preserveAspectRatio="xMidYMid meet" version="1.2"><defs><clipPath id="7ef8813273"><path d="M 13 0.0625 L 195 0.0625 L 195 56 L 13 56 Z M 13 0.0625 "/></clipPath><clipPath id="43f707ac56"><path d="M 3.894531 42 L 186 42 L 186 98.726562 L 3.894531 98.726562 Z M 3.894531 42 "/></clipPath></defs><g id="219f222ec5"><g clip-rule="nonzero" clip-path="url(#7ef8813273)"><path style=" stroke:none;fill-rule:nonzero;fill:#000000;fill-opacity:1;" d="M 13.128906 50.257812 C 20.316406 44.167969 27.941406 38.683594 36.007812 33.808594 C 45.472656 28.097656 56.402344 21.613281 72.113281 17.613281 C 80.640625 15.464844 89.304688 14.328125 98.097656 14.207031 C 119.628906 13.898438 135.699219 19.890625 144.929688 23.417969 C 167.90625 32.242188 184.414062 45.316406 194.886719 55.375 C 187.023438 46.316406 178.277344 38.207031 168.65625 31.046875 C 160.542969 25.023438 154.371094 20.441406 144.652344 16.539062 C 131.46875 11.265625 118.753906 10.058594 111.769531 9.441406 C 108.117188 9.117188 105.082031 8.996094 103.011719 8.945312 C 111.152344 7.476562 119.359375 6.816406 127.632812 6.960938 C 157.320312 7.503906 180.289062 18.519531 193.316406 26.296875 C 193.316406 26.296875 107.144531 -46.410156 13.128906 50.257812 Z M 13.128906 50.257812 "/></g><g clip-rule="nonzero" clip-path="url(#43f707ac56)"><path style=" stroke:none;fill-rule:nonzero;fill:#000000;fill-opacity:1;" d="M 185.382812 48.109375 C 175.535156 59.351562 159.332031 74.628906 135.5625 85.675781 C 124.960938 90.597656 107.652344 98.417969 83.914062 98.714844 C 63.917969 98.964844 48.824219 93.75 41.265625 91.070312 C 28.570312 86.558594 16.820312 80.28125 6.015625 72.230469 C 14.9375 77.503906 24.328125 81.730469 34.1875 84.914062 C 40.550781 86.96875 52.078125 90.601562 67.710938 91.292969 C 77.5 91.726562 87.195312 90.953125 96.792969 88.980469 C 90.066406 89.4375 83.378906 89.136719 76.722656 88.070312 C 72.238281 87.339844 67.835938 86.285156 63.507812 84.902344 C 49.109375 80.308594 38.757812 73.015625 31.359375 67.722656 C 21.292969 60.507812 12.15625 52.261719 3.949219 42.984375 C 14.972656 53.679688 33.558594 68.53125 60.101562 77.191406 C 69.90625 80.386719 86.34375 85.570312 108.023438 83.800781 C 129.261719 82.066406 144.617188 74.550781 153.410156 70.140625 C 165.089844 64.277344 175.746094 56.933594 185.382812 48.109375 Z M 185.382812 48.109375 "/></g><path style=" stroke:none;fill-rule:nonzero;fill:#000000;fill-opacity:1;" d="M 192.234375 33.375 C 192.234375 33.671875 192.207031 33.96875 192.148438 34.261719 C 192.089844 34.550781 192.003906 34.835938 191.890625 35.109375 C 191.777344 35.382812 191.636719 35.644531 191.472656 35.894531 C 191.304688 36.140625 191.117188 36.371094 190.910156 36.578125 C 190.699219 36.789062 190.46875 36.976562 190.222656 37.144531 C 189.972656 37.308594 189.714844 37.449219 189.4375 37.5625 C 189.164062 37.675781 188.878906 37.761719 188.589844 37.820312 C 188.296875 37.878906 188.003906 37.90625 187.703125 37.90625 C 187.40625 37.90625 187.113281 37.878906 186.820312 37.820312 C 186.527344 37.761719 186.246094 37.675781 185.972656 37.5625 C 185.695312 37.449219 185.433594 37.308594 185.1875 37.144531 C 184.941406 36.976562 184.710938 36.789062 184.5 36.578125 C 184.292969 36.371094 184.101562 36.140625 183.9375 35.894531 C 183.773438 35.644531 183.632812 35.382812 183.519531 35.109375 C 183.40625 34.835938 183.320312 34.550781 183.261719 34.261719 C 183.203125 33.96875 183.175781 33.671875 183.175781 33.375 C 183.175781 33.078125 183.203125 32.785156 183.261719 32.492188 C 183.320312 32.199219 183.40625 31.917969 183.519531 31.640625 C 183.632812 31.367188 183.773438 31.105469 183.9375 30.859375 C 184.101562 30.613281 184.292969 30.382812 184.5 30.171875 C 184.710938 29.960938 184.941406 29.773438 185.1875 29.609375 C 185.433594 29.445312 185.695312 29.304688 185.972656 29.191406 C 186.246094 29.078125 186.527344 28.992188 186.820312 28.933594 C 187.113281 28.875 187.40625 28.847656 187.703125 28.847656 C 188.003906 28.847656 188.296875 28.875 188.589844 28.933594 C 188.878906 28.992188 189.164062 29.078125 189.4375 29.191406 C 189.714844 29.304688 189.972656 29.445312 190.222656 29.609375 C 190.46875 29.773438 190.699219 29.960938 190.910156 30.171875 C 191.117188 30.382812 191.304688 30.613281 191.472656 30.859375 C 191.636719 31.105469 191.777344 31.367188 191.890625 31.640625 C 192.003906 31.917969 192.089844 32.199219 192.148438 32.492188 C 192.207031 32.785156 192.234375 33.078125 192.234375 33.375 Z M 192.234375 33.375 "/><path style=" stroke:none;fill-rule:nonzero;fill:#000000;fill-opacity:1;" d="M 20.082031 66.382812 C 20.082031 66.679688 20.050781 66.972656 19.992188 67.265625 C 19.933594 67.558594 19.847656 67.839844 19.734375 68.117188 C 19.621094 68.390625 19.480469 68.652344 19.316406 68.898438 C 19.152344 69.148438 18.964844 69.375 18.753906 69.585938 C 18.542969 69.796875 18.3125 69.984375 18.066406 70.148438 C 17.820312 70.3125 17.558594 70.453125 17.285156 70.566406 C 17.007812 70.683594 16.726562 70.769531 16.433594 70.824219 C 16.140625 70.882812 15.847656 70.914062 15.550781 70.914062 C 15.253906 70.914062 14.957031 70.882812 14.667969 70.824219 C 14.375 70.769531 14.089844 70.683594 13.816406 70.566406 C 13.542969 70.453125 13.28125 70.3125 13.03125 70.148438 C 12.785156 69.984375 12.558594 69.796875 12.347656 69.585938 C 12.136719 69.375 11.949219 69.148438 11.78125 68.898438 C 11.617188 68.652344 11.476562 68.390625 11.363281 68.117188 C 11.25 67.839844 11.164062 67.558594 11.105469 67.265625 C 11.046875 66.972656 11.019531 66.679688 11.019531 66.382812 C 11.019531 66.085938 11.046875 65.789062 11.105469 65.5 C 11.164062 65.207031 11.25 64.921875 11.363281 64.648438 C 11.476562 64.375 11.617188 64.113281 11.78125 63.867188 C 11.949219 63.617188 12.136719 63.390625 12.347656 63.179688 C 12.558594 62.96875 12.785156 62.78125 13.03125 62.617188 C 13.28125 62.449219 13.542969 62.3125 13.816406 62.195312 C 14.089844 62.082031 14.375 61.996094 14.667969 61.9375 C 14.957031 61.882812 15.253906 61.851562 15.550781 61.851562 C 15.847656 61.851562 16.140625 61.882812 16.433594 61.9375 C 16.726562 61.996094 17.007812 62.082031 17.285156 62.195312 C 17.558594 62.3125 17.820312 62.449219 18.066406 62.617188 C 18.3125 62.78125 18.542969 62.96875 18.753906 63.179688 C 18.964844 63.390625 19.152344 63.617188 19.316406 63.867188 C 19.480469 64.113281 19.621094 64.375 19.734375 64.648438 C 19.847656 64.921875 19.933594 65.207031 19.992188 65.5 C 20.050781 65.789062 20.082031 66.085938 20.082031 66.382812 Z M 20.082031 66.382812 "/><path style=" stroke:none;fill-rule:nonzero;fill:#000000;fill-opacity:1;" d="M 54.839844 50.179688 L 48.925781 66.707031 L 39.695312 66.707031 L 53.511719 31.109375 L 64.789062 31.109375 L 62.933594 52.058594 L 76.726562 31.109375 L 88.445312 31.109375 L 75.179688 66.707031 L 66.335938 66.707031 L 72.136719 51.84375 L 62.1875 66.710938 L 53.402344 66.710938 C 53.878906 61.199219 54.359375 55.6875 54.839844 50.179688 Z M 54.839844 50.179688 "/><path style=" stroke:none;fill-rule:nonzero;fill:#000000;fill-opacity:1;" d="M 91.832031 31.109375 L 78.277344 66.707031 L 87.6875 66.707031 L 95.023438 46.917969 L 97.511719 66.707031 L 106.589844 66.707031 L 119.855469 31.109375 L 110.902344 31.109375 L 104.019531 49.574219 L 101.78125 31.109375 Z M 91.832031 31.109375 "/><path style=" stroke:none;fill-rule:nonzero;fill:#000000;fill-opacity:1;" d="M 150.957031 31.035156 L 131.925781 30.9375 C 131.925781 30.9375 123.835938 30.441406 119.789062 38.808594 C 115.742188 47.175781 118.054688 50.695312 118.054688 50.695312 C 118.054688 50.695312 119.707031 53.367188 124.207031 53.40625 C 128.703125 53.449219 134.277344 53.414062 134.277344 53.414062 C 134.277344 53.414062 134.03125 57.003906 131.058594 57.003906 L 113.683594 57.003906 L 110.257812 66.386719 L 129.121094 66.386719 C 130.605469 66.324219 132.050781 66.054688 133.460938 65.582031 C 134.871094 65.109375 136.1875 64.453125 137.410156 63.605469 C 138.632812 62.761719 139.714844 61.765625 140.65625 60.613281 C 141.597656 59.464844 142.363281 58.207031 142.949219 56.839844 C 143.535156 55.554688 144.320312 53.832031 144.351562 51.472656 C 144.375 49.863281 144.414062 47.429688 142.636719 45.777344 C 141.070312 44.308594 138.964844 44.304688 138.285156 44.332031 C 136.003906 44.285156 134.152344 44.285156 132.875 44.289062 C 130.328125 44.304688 127.136719 44.375 127.136719 44.375 C 127.136719 44.375 127.304688 40.535156 130.894531 40.492188 C 134.488281 40.449219 147.53125 40.449219 147.53125 40.449219 C 148.671875 37.308594 149.816406 34.171875 150.957031 31.035156 Z M 150.957031 31.035156 "/></g></svg>